<?xml version="1.0" encoding="utf-8"?>
<svg xmlns="http://www.w3.org/2000/svg" version="1.1" width="1000" height="1000">
<title>LE DEVEDEC Corentin projet LOGO</title>
<desc>Du LOGO.</desc>
<line x1="500.000000" y1="500.000000" x2="524.620194" y2="495.658796" stroke="GREEN" /><line x1="524.620194" y1="495.658796" x2="545.098995" y2="509.998206" stroke="GREEN" /><line x1="545.098995" y1="509.998206" x2="549.440199" y2="534.618400" stroke="GREEN" /><line x1="549.440199" y1="534.618400" x2="535.100788" y2="555.097201" stroke="GREEN" /><line x1="535.100788" y1="555.097201" x2="510.480595" y2="559.438406" stroke="GREEN" /><line x1="510.480595" y1="559.438406" x2="490.001794" y2="545.098995" stroke="GREEN" /><line x1="490.001794" y1="545.098995" x2="485.660589" y2="520.478801" stroke="GREEN" /><line x1="485.660589" y1="520.478801" x2="500.000000" y2="500.000000" stroke="GREEN" /><line x1="500.000000" y1="500.000000" x2="523.492316" y2="491.449496" stroke="GREEN" /><line x1="523.492316" y1="491.449496" x2="546.150010" y2="502.014953" stroke="GREEN" /><line x1="546.150010" y1="502.014953" x2="554.700514" y2="525.507268" stroke="GREEN" /><line x1="554.700514" y1="525.507268" x2="544.135057" y2="548.164963" stroke="GREEN" /><line x1="544.135057" y1="548.164963" x2="520.642742" y2="556.715467" stroke="GREEN" /><line x1="520.642742" y1="556.715467" x2="497.985047" y2="546.150010" stroke="GREEN" /><line x1="497.985047" y1="546.150010" x2="489.434543" y2="522.657695" stroke="GREEN" /><line x1="489.434543" y1="522.657695" x2="500.000000" y2="500.000000" stroke="GREEN" /><line x1="500.000000" y1="500.000000" x2="521.650635" y2="487.500000" stroke="GREEN" /><line x1="521.650635" y1="487.500000" x2="545.798781" y2="493.970476" stroke="GREEN" /><line x1="545.798781" y1="493.970476" x2="558.298781" y2="515.621111" stroke="GREEN" /><line x1="558.298781" y1="515.621111" x2="551.828305" y2="539.769257" stroke="GREEN" /><line x1="551.828305" y1="539.769257" x2="530.177670" y2="552.269257" stroke="GREEN" /><line x1="530.177670" y1="552.269257" x2="506.029524" y2="545.798781" stroke="GREEN" /><line x1="506.029524" y1="545.798781" x2="493.529524" y2="524.148146" stroke="GREEN" /><line x1="493.529524" y1="524.148146" x2="500.000000" y2="500.000000" stroke="GREEN" /><line x1="500.000000" y1="500.000000" x2="519.151111" y2="483.930310" stroke="GREEN" /><line x1="519.151111" y1="483.930310" x2="544.055979" y2="486.109203" stroke="GREEN" /><line x1="544.055979" y1="486.109203" x2="560.125669" y2="505.260314" stroke="GREEN" /><line x1="560.125669" y1="505.260314" x2="557.946775" y2="530.165182" stroke="GREEN" /><line x1="557.946775" y1="530.165182" x2="538.795664" y2="546.234872" stroke="GREEN" /><line x1="538.795664" y1="546.234872" x2="513.890797" y2="544.055979" stroke="GREEN" /><line x1="513.890797" y1="544.055979" x2="497.821106" y2="524.904867" stroke="GREEN" /><line x1="497.821106" y1="524.904867" x2="500.000000" y2="500.000000" stroke="GREEN" /><line x1="500.000000" y1="500.000000" x2="516.069690" y2="480.848889" stroke="GREEN" /><line x1="516.069690" y1="480.848889" x2="540.974558" y2="478.669995" stroke="GREEN" /><line x1="540.974558" y1="478.669995" x2="560.125669" y2="494.739686" stroke="GREEN" /><line x1="560.125669" y1="494.739686" x2="562.304562" y2="519.644553" stroke="GREEN" /><line x1="562.304562" y1="519.644553" x2="546.234872" y2="538.795664" stroke="GREEN" /><line x1="546.234872" y1="538.795664" x2="521.330005" y2="540.974558" stroke="GREEN" /><line x1="521.330005" y1="540.974558" x2="502.178894" y2="524.904867" stroke="GREEN" /><line x1="502.178894" y1="524.904867" x2="500.000000" y2="500.000000" stroke="GREEN" /><line x1="500.000000" y1="500.000000" x2="512.500000" y2="478.349365" stroke="GREEN" /><line x1="512.500000" y1="478.349365" x2="536.648146" y2="471.878889" stroke="GREEN" /><line x1="536.648146" y1="471.878889" x2="558.298781" y2="484.378889" stroke="GREEN" /><line x1="558.298781" y1="484.378889" x2="564.769257" y2="508.527034" stroke="GREEN" /><line x1="564.769257" y1="508.527034" x2="552.269257" y2="530.177670" stroke="GREEN" /><line x1="552.269257" y1="530.177670" x2="528.121111" y2="536.648146" stroke="GREEN" /><line x1="528.121111" y1="536.648146" x2="506.470476" y2="524.148146" stroke="GREEN" /><line x1="506.470476" y1="524.148146" x2="500.000000" y2="500.000000" stroke="GREEN" /><line x1="500.000000" y1="500.000000" x2="508.550504" y2="476.507684" stroke="GREEN" /><line x1="508.550504" y1="476.507684" x2="531.208198" y2="465.942228" stroke="GREEN" /><line x1="531.208198" y1="465.942228" x2="554.700514" y2="474.492732" stroke="GREEN" /><line x1="554.700514" y1="474.492732" x2="565.265970" y2="497.150426" stroke="GREEN" /><line x1="565.265970" y1="497.150426" x2="556.715467" y2="520.642742" stroke="GREEN" /><line x1="556.715467" y1="520.642742" x2="534.057772" y2="531.208198" stroke="GREEN" /><line x1="534.057772" y1="531.208198" x2="510.565457" y2="522.657695" stroke="GREEN" /><line x1="510.565457" y1="522.657695" x2="500.000000" y2="500.000000" stroke="GREEN" /><line x1="500.000000" y1="500.000000" x2="504.341204" y2="475.379806" stroke="GREEN" /><line x1="504.341204" y1="475.379806" x2="524.820006" y2="461.040395" stroke="GREEN" /><line x1="524.820006" y1="461.040395" x2="549.440199" y2="465.381600" stroke="GREEN" /><line x1="549.440199" y1="465.381600" x2="563.779610" y2="485.860401" stroke="GREEN" /><line x1="563.779610" y1="485.860401" x2="559.438406" y2="510.480595" stroke="GREEN" /><line x1="559.438406" y1="510.480595" x2="538.959605" y2="524.820006" stroke="GREEN" /><line x1="538.959605" y1="524.820006" x2="514.339411" y2="520.478801" stroke="GREEN" /><line x1="514.339411" y1="520.478801" x2="500.000000" y2="500.000000" stroke="GREEN" /><line x1="500.000000" y1="500.000000" x2="500.000000" y2="475.000000" stroke="GREEN" /><line x1="500.000000" y1="475.000000" x2="517.677670" y2="457.322330" stroke="GREEN" /><line x1="517.677670" y1="457.322330" x2="542.677670" y2="457.322330" stroke="GREEN" /><line x1="542.677670" y1="457.322330" x2="560.355339" y2="475.000000" stroke="GREEN" /><line x1="560.355339" y1="475.000000" x2="560.355339" y2="500.000000" stroke="GREEN" /><line x1="560.355339" y1="500.000000" x2="542.677670" y2="517.677670" stroke="GREEN" /><line x1="542.677670" y1="517.677670" x2="517.677670" y2="517.677670" stroke="GREEN" /><line x1="517.677670" y1="517.677670" x2="500.000000" y2="500.000000" stroke="GREEN" /><line x1="500.000000" y1="500.000000" x2="495.658796" y2="475.379806" stroke="GREEN" /><line x1="495.658796" y1="475.379806" x2="509.998206" y2="454.901005" stroke="GREEN" /><line x1="509.998206" y1="454.901005" x2="534.618400" y2="450.559801" stroke="GREEN" /><line x1="534.618400" y1="450.559801" x2="555.097201" y2="464.899212" stroke="GREEN" /><line x1="555.097201" y1="464.899212" x2="559.438406" y2="489.519405" stroke="GREEN" /><line x1="559.438406" y1="489.519405" x2="545.098995" y2="509.998206" stroke="GREEN" /><line x1="545.098995" y1="509.998206" x2="520.478801" y2="514.339411" stroke="GREEN" /><line x1="520.478801" y1="514.339411" x2="500.000000" y2="500.000000" stroke="GREEN" /><line x1="500.000000" y1="500.000000" x2="491.449496" y2="476.507684" stroke="GREEN" /><line x1="491.449496" y1="476.507684" x2="502.014953" y2="453.849990" stroke="GREEN" /><line x1="502.014953" y1="453.849990" x2="525.507268" y2="445.299486" stroke="GREEN" /><line x1="525.507268" y1="445.299486" x2="548.164963" y2="455.864943" stroke="GREEN" /><line x1="548.164963" y1="455.864943" x2="556.715467" y2="479.357258" stroke="GREEN" /><line x1="556.715467" y1="479.357258" x2="546.150010" y2="502.014953" stroke="GREEN" /><line x1="546.150010" y1="502.014953" x2="522.657695" y2="510.565457" stroke="GREEN" /><line x1="522.657695" y1="510.565457" x2="500.000000" y2="500.000000" stroke="GREEN" /><line x1="500.000000" y1="500.000000" x2="487.500000" y2="478.349365" stroke="GREEN" /><line x1="487.500000" y1="478.349365" x2="493.970476" y2="454.201219" stroke="GREEN" /><line x1="493.970476" y1="454.201219" x2="515.621111" y2="441.701219" stroke="GREEN" /><line x1="515.621111" y1="441.701219" x2="539.769257" y2="448.171695" stroke="GREEN" /><line x1="539.769257" y1="448.171695" x2="552.269257" y2="469.822330" stroke="GREEN" /><line x1="552.269257" y1="469.822330" x2="545.798781" y2="493.970476" stroke="GREEN" /><line x1="545.798781" y1="493.970476" x2="524.148146" y2="506.470476" stroke="GREEN" /><line x1="524.148146" y1="506.470476" x2="500.000000" y2="500.000000" stroke="GREEN" /><line x1="500.000000" y1="500.000000" x2="483.930310" y2="480.848889" stroke="RED" /><line x1="483.930310" y1="480.848889" x2="486.109203" y2="455.944021" stroke="RED" /><line x1="486.109203" y1="455.944021" x2="505.260314" y2="439.874331" stroke="RED" /><line x1="505.260314" y1="439.874331" x2="530.165182" y2="442.053225" stroke="RED" /><line x1="530.165182" y1="442.053225" x2="546.234872" y2="461.204336" stroke="RED" /><line x1="546.234872" y1="461.204336" x2="544.055979" y2="486.109203" stroke="RED" /><line x1="544.055979" y1="486.109203" x2="524.904867" y2="502.178894" stroke="RED" /><line x1="524.904867" y1="502.178894" x2="500.000000" y2="500.000000" stroke="RED" /><line x1="500.000000" y1="500.000000" x2="480.848889" y2="483.930310" stroke="RED" /><line x1="480.848889" y1="483.930310" x2="478.669995" y2="459.025442" stroke="RED" /><line x1="478.669995" y1="459.025442" x2="494.739686" y2="439.874331" stroke="RED" /><line x1="494.739686" y1="439.874331" x2="519.644553" y2="437.695438" stroke="RED" /><line x1="519.644553" y1="437.695438" x2="538.795664" y2="453.765128" stroke="RED" /><line x1="538.795664" y1="453.765128" x2="540.974558" y2="478.669995" stroke="RED" /><line x1="540.974558" y1="478.669995" x2="524.904867" y2="497.821106" stroke="RED" /><line x1="524.904867" y1="497.821106" x2="500.000000" y2="500.000000" stroke="RED" /><line x1="500.000000" y1="500.000000" x2="478.349365" y2="487.500000" stroke="RED" /><line x1="478.349365" y1="487.500000" x2="471.878889" y2="463.351854" stroke="RED" /><line x1="471.878889" y1="463.351854" x2="484.378889" y2="441.701219" stroke="RED" /><line x1="484.378889" y1="441.701219" x2="508.527034" y2="435.230743" stroke="RED" /><line x1="508.527034" y1="435.230743" x2="530.177670" y2="447.730743" stroke="RED" /><line x1="530.177670" y1="447.730743" x2="536.648146" y2="471.878889" stroke="RED" /><line x1="536.648146" y1="471.878889" x2="524.148146" y2="493.529524" stroke="RED" /><line x1="524.148146" y1="493.529524" x2="500.000000" y2="500.000000" stroke="RED" /><line x1="500.000000" y1="500.000000" x2="476.507684" y2="491.449496" stroke="RED" /><line x1="476.507684" y1="491.449496" x2="465.942228" y2="468.791802" stroke="RED" /><line x1="465.942228" y1="468.791802" x2="474.492732" y2="445.299486" stroke="RED" /><line x1="474.492732" y1="445.299486" x2="497.150426" y2="434.734030" stroke="RED" /><line x1="497.150426" y1="434.734030" x2="520.642742" y2="443.284533" stroke="RED" /><line x1="520.642742" y1="443.284533" x2="531.208198" y2="465.942228" stroke="RED" /><line x1="531.208198" y1="465.942228" x2="522.657695" y2="489.434543" stroke="RED" /><line x1="522.657695" y1="489.434543" x2="500.000000" y2="500.000000" stroke="RED" /><line x1="500.000000" y1="500.000000" x2="475.379806" y2="495.658796" stroke="RED" /><line x1="475.379806" y1="495.658796" x2="461.040395" y2="475.179994" stroke="RED" /><line x1="461.040395" y1="475.179994" x2="465.381600" y2="450.559801" stroke="RED" /><line x1="465.381600" y1="450.559801" x2="485.860401" y2="436.220390" stroke="RED" /><line x1="485.860401" y1="436.220390" x2="510.480595" y2="440.561594" stroke="RED" /><line x1="510.480595" y1="440.561594" x2="524.820006" y2="461.040395" stroke="RED" /><line x1="524.820006" y1="461.040395" x2="520.478801" y2="485.660589" stroke="RED" /><line x1="520.478801" y1="485.660589" x2="500.000000" y2="500.000000" stroke="RED" /><line x1="500.000000" y1="500.000000" x2="475.000000" y2="500.000000" stroke="RED" /><line x1="475.000000" y1="500.000000" x2="457.322330" y2="482.322330" stroke="RED" /><line x1="457.322330" y1="482.322330" x2="457.322330" y2="457.322330" stroke="RED" /><line x1="457.322330" y1="457.322330" x2="475.000000" y2="439.644661" stroke="RED" /><line x1="475.000000" y1="439.644661" x2="500.000000" y2="439.644661" stroke="RED" /><line x1="500.000000" y1="439.644661" x2="517.677670" y2="457.322330" stroke="RED" /><line x1="517.677670" y1="457.322330" x2="517.677670" y2="482.322330" stroke="RED" /><line x1="517.677670" y1="482.322330" x2="500.000000" y2="500.000000" stroke="RED" /><line x1="500.000000" y1="500.000000" x2="475.379806" y2="504.341204" stroke="RED" /><line x1="475.379806" y1="504.341204" x2="454.901005" y2="490.001794" stroke="RED" /><line x1="454.901005" y1="490.001794" x2="450.559801" y2="465.381600" stroke="RED" /><line x1="450.559801" y1="465.381600" x2="464.899212" y2="444.902799" stroke="RED" /><line x1="464.899212" y1="444.902799" x2="489.519405" y2="440.561594" stroke="RED" /><line x1="489.519405" y1="440.561594" x2="509.998206" y2="454.901005" stroke="RED" /><line x1="509.998206" y1="454.901005" x2="514.339411" y2="479.521199" stroke="RED" /><line x1="514.339411" y1="479.521199" x2="500.000000" y2="500.000000" stroke="RED" /><line x1="500.000000" y1="500.000000" x2="476.507684" y2="508.550504" stroke="RED" /><line x1="476.507684" y1="508.550504" x2="453.849990" y2="497.985047" stroke="RED" /><line x1="453.849990" y1="497.985047" x2="445.299486" y2="474.492732" stroke="RED" /><line x1="445.299486" y1="474.492732" x2="455.864943" y2="451.835037" stroke="RED" /><line x1="455.864943" y1="451.835037" x2="479.357258" y2="443.284533" stroke="RED" /><line x1="479.357258" y1="443.284533" x2="502.014953" y2="453.849990" stroke="RED" /><line x1="502.014953" y1="453.849990" x2="510.565457" y2="477.342305" stroke="RED" /><line x1="510.565457" y1="477.342305" x2="500.000000" y2="500.000000" stroke="RED" /><line x1="500.000000" y1="500.000000" x2="478.349365" y2="512.500000" stroke="RED" /><line x1="478.349365" y1="512.500000" x2="454.201219" y2="506.029524" stroke="RED" /><line x1="454.201219" y1="506.029524" x2="441.701219" y2="484.378889" stroke="RED" /><line x1="441.701219" y1="484.378889" x2="448.171695" y2="460.230743" stroke="RED" /><line x1="448.171695" y1="460.230743" x2="469.822330" y2="447.730743" stroke="RED" /><line x1="469.822330" y1="447.730743" x2="493.970476" y2="454.201219" stroke="RED" /><line x1="493.970476" y1="454.201219" x2="506.470476" y2="475.851854" stroke="RED" /><line x1="506.470476" y1="475.851854" x2="500.000000" y2="500.000000" stroke="RED" /><line x1="500.000000" y1="500.000000" x2="480.848889" y2="516.069690" stroke="RED" /><line x1="480.848889" y1="516.069690" x2="455.944021" y2="513.890797" stroke="RED" /><line x1="455.944021" y1="513.890797" x2="439.874331" y2="494.739686" stroke="RED" /><line x1="439.874331" y1="494.739686" x2="442.053225" y2="469.834818" stroke="RED" /><line x1="442.053225" y1="469.834818" x2="461.204336" y2="453.765128" stroke="RED" /><line x1="461.204336" y1="453.765128" x2="486.109203" y2="455.944021" stroke="RED" /><line x1="486.109203" y1="455.944021" x2="502.178894" y2="475.095133" stroke="RED" /><line x1="502.178894" y1="475.095133" x2="500.000000" y2="500.000000" stroke="RED" /><line x1="500.000000" y1="500.000000" x2="483.930310" y2="519.151111" stroke="RED" /><line x1="483.930310" y1="519.151111" x2="459.025442" y2="521.330005" stroke="RED" /><line x1="459.025442" y1="521.330005" x2="439.874331" y2="505.260314" stroke="RED" /><line x1="439.874331" y1="505.260314" x2="437.695438" y2="480.355447" stroke="RED" /><line x1="437.695438" y1="480.355447" x2="453.765128" y2="461.204336" stroke="RED" /><line x1="453.765128" y1="461.204336" x2="478.669995" y2="459.025442" stroke="RED" /><line x1="478.669995" y1="459.025442" x2="497.821106" y2="475.095133" stroke="RED" /><line x1="497.821106" y1="475.095133" x2="500.000000" y2="500.000000" stroke="RED" /><line x1="500.000000" y1="500.000000" x2="487.500000" y2="521.650635" stroke="RED" /><line x1="487.500000" y1="521.650635" x2="463.351854" y2="528.121111" stroke="RED" /><line x1="463.351854" y1="528.121111" x2="441.701219" y2="515.621111" stroke="RED" /><line x1="441.701219" y1="515.621111" x2="435.230743" y2="491.472966" stroke="RED" /><line x1="435.230743" y1="491.472966" x2="447.730743" y2="469.822330" stroke="RED" /><line x1="447.730743" y1="469.822330" x2="471.878889" y2="463.351854" stroke="RED" /><line x1="471.878889" y1="463.351854" x2="493.529524" y2="475.851854" stroke="RED" /><line x1="493.529524" y1="475.851854" x2="500.000000" y2="500.000000" stroke="RED" /><line x1="500.000000" y1="500.000000" x2="491.449496" y2="523.492316" stroke="WHITE" /><line x1="491.449496" y1="523.492316" x2="468.791802" y2="534.057772" stroke="WHITE" /><line x1="468.791802" y1="534.057772" x2="445.299486" y2="525.507268" stroke="WHITE" /><line x1="445.299486" y1="525.507268" x2="434.734030" y2="502.849574" stroke="WHITE" /><line x1="434.734030" y1="502.849574" x2="443.284533" y2="479.357258" stroke="WHITE" /><line x1="443.284533" y1="479.357258" x2="465.942228" y2="468.791802" stroke="WHITE" /><line x1="465.942228" y1="468.791802" x2="489.434543" y2="477.342305" stroke="WHITE" /><line x1="489.434543" y1="477.342305" x2="500.000000" y2="500.000000" stroke="WHITE" /><line x1="500.000000" y1="500.000000" x2="495.658796" y2="524.620194" stroke="WHITE" /><line x1="495.658796" y1="524.620194" x2="475.179994" y2="538.959605" stroke="WHITE" /><line x1="475.179994" y1="538.959605" x2="450.559801" y2="534.618400" stroke="WHITE" /><line x1="450.559801" y1="534.618400" x2="436.220390" y2="514.139599" stroke="WHITE" /><line x1="436.220390" y1="514.139599" x2="440.561594" y2="489.519405" stroke="WHITE" /><line x1="440.561594" y1="489.519405" x2="461.040395" y2="475.179994" stroke="WHITE" /><line x1="461.040395" y1="475.179994" x2="485.660589" y2="479.521199" stroke="WHITE" /><line x1="485.660589" y1="479.521199" x2="500.000000" y2="500.000000" stroke="WHITE" /><line x1="500.000000" y1="500.000000" x2="500.000000" y2="525.000000" stroke="WHITE" /><line x1="500.000000" y1="525.000000" x2="482.322330" y2="542.677670" stroke="WHITE" /><line x1="482.322330" y1="542.677670" x2="457.322330" y2="542.677670" stroke="WHITE" /><line x1="457.322330" y1="542.677670" x2="439.644661" y2="525.000000" stroke="WHITE" /><line x1="439.644661" y1="525.000000" x2="439.644661" y2="500.000000" stroke="WHITE" /><line x1="439.644661" y1="500.000000" x2="457.322330" y2="482.322330" stroke="WHITE" /><line x1="457.322330" y1="482.322330" x2="482.322330" y2="482.322330" stroke="WHITE" /><line x1="482.322330" y1="482.322330" x2="500.000000" y2="500.000000" stroke="WHITE" /><line x1="500.000000" y1="500.000000" x2="504.341204" y2="524.620194" stroke="WHITE" /><line x1="504.341204" y1="524.620194" x2="490.001794" y2="545.098995" stroke="WHITE" /><line x1="490.001794" y1="545.098995" x2="465.381600" y2="549.440199" stroke="WHITE" /><line x1="465.381600" y1="549.440199" x2="444.902799" y2="535.100788" stroke="WHITE" /><line x1="444.902799" y1="535.100788" x2="440.561594" y2="510.480595" stroke="WHITE" /><line x1="440.561594" y1="510.480595" x2="454.901005" y2="490.001794" stroke="WHITE" /><line x1="454.901005" y1="490.001794" x2="479.521199" y2="485.660589" stroke="WHITE" /><line x1="479.521199" y1="485.660589" x2="500.000000" y2="500.000000" stroke="WHITE" /><line x1="500.000000" y1="500.000000" x2="508.550504" y2="523.492316" stroke="WHITE" /><line x1="508.550504" y1="523.492316" x2="497.985047" y2="546.150010" stroke="WHITE" /><line x1="497.985047" y1="546.150010" x2="474.492732" y2="554.700514" stroke="WHITE" /><line x1="474.492732" y1="554.700514" x2="451.835037" y2="544.135057" stroke="WHITE" /><line x1="451.835037" y1="544.135057" x2="443.284533" y2="520.642742" stroke="WHITE" /><line x1="443.284533" y1="520.642742" x2="453.849990" y2="497.985047" stroke="WHITE" /><line x1="453.849990" y1="497.985047" x2="477.342305" y2="489.434543" stroke="WHITE" /><line x1="477.342305" y1="489.434543" x2="500.000000" y2="500.000000" stroke="WHITE" /><line x1="500.000000" y1="500.000000" x2="512.500000" y2="521.650635" stroke="WHITE" /><line x1="512.500000" y1="521.650635" x2="506.029524" y2="545.798781" stroke="WHITE" /><line x1="506.029524" y1="545.798781" x2="484.378889" y2="558.298781" stroke="WHITE" /><line x1="484.378889" y1="558.298781" x2="460.230743" y2="551.828305" stroke="WHITE" /><line x1="460.230743" y1="551.828305" x2="447.730743" y2="530.177670" stroke="WHITE" /><line x1="447.730743" y1="530.177670" x2="454.201219" y2="506.029524" stroke="WHITE" /><line x1="454.201219" y1="506.029524" x2="475.851854" y2="493.529524" stroke="WHITE" /><line x1="475.851854" y1="493.529524" x2="500.000000" y2="500.000000" stroke="WHITE" /><line x1="500.000000" y1="500.000000" x2="516.069690" y2="519.151111" stroke="WHITE" /><line x1="516.069690" y1="519.151111" x2="513.890797" y2="544.055979" stroke="WHITE" /><line x1="513.890797" y1="544.055979" x2="494.739686" y2="560.125669" stroke="WHITE" /><line x1="494.739686" y1="560.125669" x2="469.834818" y2="557.946775" stroke="WHITE" /><line x1="469.834818" y1="557.946775" x2="453.765128" y2="538.795664" stroke="WHITE" /><line x1="453.765128" y1="538.795664" x2="455.944021" y2="513.890797" stroke="WHITE" /><line x1="455.944021" y1="513.890797" x2="475.095133" y2="497.821106" stroke="WHITE" /><line x1="475.095133" y1="497.821106" x2="500.000000" y2="500.000000" stroke="WHITE" /><line x1="500.000000" y1="500.000000" x2="519.151111" y2="516.069690" stroke="WHITE" /><line x1="519.151111" y1="516.069690" x2="521.330005" y2="540.974558" stroke="WHITE" /><line x1="521.330005" y1="540.974558" x2="505.260314" y2="560.125669" stroke="WHITE" /><line x1="505.260314" y1="560.125669" x2="480.355447" y2="562.304562" stroke="WHITE" /><line x1="480.355447" y1="562.304562" x2="461.204336" y2="546.234872" stroke="WHITE" /><line x1="461.204336" y1="546.234872" x2="459.025442" y2="521.330005" stroke="WHITE" /><line x1="459.025442" y1="521.330005" x2="475.095133" y2="502.178894" stroke="WHITE" /><line x1="475.095133" y1="502.178894" x2="500.000000" y2="500.000000" stroke="WHITE" /><line x1="500.000000" y1="500.000000" x2="521.650635" y2="512.500000" stroke="WHITE" /><line x1="521.650635" y1="512.500000" x2="528.121111" y2="536.648146" stroke="WHITE" /><line x1="528.121111" y1="536.648146" x2="515.621111" y2="558.298781" stroke="WHITE" /><line x1="515.621111" y1="558.298781" x2="491.472966" y2="564.769257" stroke="WHITE" /><line x1="491.472966" y1="564.769257" x2="469.822330" y2="552.269257" stroke="WHITE" /><line x1="469.822330" y1="552.269257" x2="463.351854" y2="528.121111" stroke="WHITE" /><line x1="463.351854" y1="528.121111" x2="475.851854" y2="506.470476" stroke="WHITE" /><line x1="475.851854" y1="506.470476" x2="500.000000" y2="500.000000" stroke="WHITE" /><line x1="500.000000" y1="500.000000" x2="523.492316" y2="508.550504" stroke="WHITE" /><line x1="523.492316" y1="508.550504" x2="534.057772" y2="531.208198" stroke="WHITE" /><line x1="534.057772" y1="531.208198" x2="525.507268" y2="554.700514" stroke="WHITE" /><line x1="525.507268" y1="554.700514" x2="502.849574" y2="565.265970" stroke="WHITE" /><line x1="502.849574" y1="565.265970" x2="479.357258" y2="556.715467" stroke="WHITE" /><line x1="479.357258" y1="556.715467" x2="468.791802" y2="534.057772" stroke="WHITE" /><line x1="468.791802" y1="534.057772" x2="477.342305" y2="510.565457" stroke="WHITE" /><line x1="477.342305" y1="510.565457" x2="500.000000" y2="500.000000" stroke="WHITE" /><line x1="500.000000" y1="500.000000" x2="524.620194" y2="504.341204" stroke="WHITE" /><line x1="524.620194" y1="504.341204" x2="538.959605" y2="524.820006" stroke="WHITE" /><line x1="538.959605" y1="524.820006" x2="534.618400" y2="549.440199" stroke="WHITE" /><line x1="534.618400" y1="549.440199" x2="514.139599" y2="563.779610" stroke="WHITE" /><line x1="514.139599" y1="563.779610" x2="489.519405" y2="559.438406" stroke="WHITE" /><line x1="489.519405" y1="559.438406" x2="475.179994" y2="538.959605" stroke="WHITE" /><line x1="475.179994" y1="538.959605" x2="479.521199" y2="514.339411" stroke="WHITE" /><line x1="479.521199" y1="514.339411" x2="500.000000" y2="500.000000" stroke="WHITE" /><line x1="500.000000" y1="500.000000" x2="525.000000" y2="500.000000" stroke="WHITE" /><line x1="525.000000" y1="500.000000" x2="542.677670" y2="517.677670" stroke="WHITE" /><line x1="542.677670" y1="517.677670" x2="542.677670" y2="542.677670" stroke="WHITE" /><line x1="542.677670" y1="542.677670" x2="525.000000" y2="560.355339" stroke="WHITE" /><line x1="525.000000" y1="560.355339" x2="500.000000" y2="560.355339" stroke="WHITE" /><line x1="500.000000" y1="560.355339" x2="482.322330" y2="542.677670" stroke="WHITE" /><line x1="482.322330" y1="542.677670" x2="482.322330" y2="517.677670" stroke="WHITE" /><line x1="482.322330" y1="517.677670" x2="500.000000" y2="500.000000" stroke="WHITE" /></svg>
